<svg xmlns:xlink="http://www.w3.org/1999/xlink" width="125.43ex" height="34.509ex" style="font-size: 15px; vertical-align: -24.838ex;" viewBox="0 -4164 54004.5 14858.1" role="img" focusable="false" xmlns="http://www.w3.org/2000/svg">
<defs>
<path stroke-width="1" id="E1-MJMATHI-68" d="M137 683Q138 683 209 688T282 694Q294 694 294 685Q294 674 258 534Q220 386 220 383Q220 381 227 388Q288 442 357 442Q411 442 444 415T478 336Q478 285 440 178T402 50Q403 36 407 31T422 26Q450 26 474 56T513 138Q516 149 519 151T535 153Q555 153 555 145Q555 144 551 130Q535 71 500 33Q466 -10 419 -10H414Q367 -10 346 17T325 74Q325 90 361 192T398 345Q398 404 354 404H349Q266 404 205 306L198 293L164 158Q132 28 127 16Q114 -11 83 -11Q69 -11 59 -2T48 16Q48 30 121 320L195 616Q195 629 188 632T149 637H128Q122 643 122 645T124 664Q129 683 137 683Z"></path>
<path stroke-width="1" id="E1-MJMAIN-28" d="M94 250Q94 319 104 381T127 488T164 576T202 643T244 695T277 729T302 750H315H319Q333 750 333 741Q333 738 316 720T275 667T226 581T184 443T167 250T184 58T225 -81T274 -167T316 -220T333 -241Q333 -250 318 -250H315H302L274 -226Q180 -141 137 -14T94 250Z"></path>
<path stroke-width="1" id="E1-MJMAIN-29" d="M60 749L64 750Q69 750 74 750H86L114 726Q208 641 251 514T294 250Q294 182 284 119T261 12T224 -76T186 -143T145 -194T113 -227T90 -246Q87 -249 86 -250H74Q66 -250 63 -250T58 -247T55 -238Q56 -237 66 -225Q221 -64 221 250T66 725Q56 737 55 738Q55 746 60 749Z"></path>
<path stroke-width="1" id="E1-MJMAIN-3D" d="M56 347Q56 360 70 367H707Q722 359 722 347Q722 336 708 328L390 327H72Q56 332 56 347ZM56 153Q56 168 72 173H708Q722 163 722 153Q722 140 707 133H70Q56 140 56 153Z"></path>
<path stroke-width="1" id="E1-MJMATHI-73" d="M131 289Q131 321 147 354T203 415T300 442Q362 442 390 415T419 355Q419 323 402 308T364 292Q351 292 340 300T328 326Q328 342 337 354T354 372T367 378Q368 378 368 379Q368 382 361 388T336 399T297 405Q249 405 227 379T204 326Q204 301 223 291T278 274T330 259Q396 230 396 163Q396 135 385 107T352 51T289 7T195 -10Q118 -10 86 19T53 87Q53 126 74 143T118 160Q133 160 146 151T160 120Q160 94 142 76T111 58Q109 57 108 57T107 55Q108 52 115 47T146 34T201 27Q237 27 263 38T301 66T318 97T323 122Q323 150 302 164T254 181T195 196T148 231Q131 256 131 289Z"></path>
<path stroke-width="1" id="E1-MJMATHI-6F" d="M201 -11Q126 -11 80 38T34 156Q34 221 64 279T146 380Q222 441 301 441Q333 441 341 440Q354 437 367 433T402 417T438 387T464 338T476 268Q476 161 390 75T201 -11ZM121 120Q121 70 147 48T206 26Q250 26 289 58T351 142Q360 163 374 216T388 308Q388 352 370 375Q346 405 306 405Q243 405 195 347Q158 303 140 230T121 120Z"></path>
<path stroke-width="1" id="E1-MJMATHI-66" d="M118 -162Q120 -162 124 -164T135 -167T147 -168Q160 -168 171 -155T187 -126Q197 -99 221 27T267 267T289 382V385H242Q195 385 192 387Q188 390 188 397L195 425Q197 430 203 430T250 431Q298 431 298 432Q298 434 307 482T319 540Q356 705 465 705Q502 703 526 683T550 630Q550 594 529 578T487 561Q443 561 443 603Q443 622 454 636T478 657L487 662Q471 668 457 668Q445 668 434 658T419 630Q412 601 403 552T387 469T380 433Q380 431 435 431Q480 431 487 430T498 424Q499 420 496 407T491 391Q489 386 482 386T428 385H372L349 263Q301 15 282 -47Q255 -132 212 -173Q175 -205 139 -205Q107 -205 81 -186T55 -132Q55 -95 76 -78T118 -61Q162 -61 162 -103Q162 -122 151 -136T127 -157L118 -162Z"></path>
<path stroke-width="1" id="E1-MJMATHI-74" d="M26 385Q19 392 19 395Q19 399 22 411T27 425Q29 430 36 430T87 431H140L159 511Q162 522 166 540T173 566T179 586T187 603T197 615T211 624T229 626Q247 625 254 615T261 596Q261 589 252 549T232 470L222 433Q222 431 272 431H323Q330 424 330 420Q330 398 317 385H210L174 240Q135 80 135 68Q135 26 162 26Q197 26 230 60T283 144Q285 150 288 151T303 153H307Q322 153 322 145Q322 142 319 133Q314 117 301 95T267 48T216 6T155 -11Q125 -11 98 4T59 56Q57 64 57 83V101L92 241Q127 382 128 383Q128 385 77 385H26Z"></path>
<path stroke-width="1" id="E1-MJMATHI-6D" d="M21 287Q22 293 24 303T36 341T56 388T88 425T132 442T175 435T205 417T221 395T229 376L231 369Q231 367 232 367L243 378Q303 442 384 442Q401 442 415 440T441 433T460 423T475 411T485 398T493 385T497 373T500 364T502 357L510 367Q573 442 659 442Q713 442 746 415T780 336Q780 285 742 178T704 50Q705 36 709 31T724 26Q752 26 776 56T815 138Q818 149 821 151T837 153Q857 153 857 145Q857 144 853 130Q845 101 831 73T785 17T716 -10Q669 -10 648 17T627 73Q627 92 663 193T700 345Q700 404 656 404H651Q565 404 506 303L499 291L466 157Q433 26 428 16Q415 -11 385 -11Q372 -11 364 -4T353 8T350 18Q350 29 384 161L420 307Q423 322 423 345Q423 404 379 404H374Q288 404 229 303L222 291L189 157Q156 26 151 16Q138 -11 108 -11Q95 -11 87 -5T76 7T74 17Q74 30 112 181Q151 335 151 342Q154 357 154 369Q154 405 129 405Q107 405 92 377T69 316T57 280Q55 278 41 278H27Q21 284 21 287Z"></path>
<path stroke-width="1" id="E1-MJMATHI-61" d="M33 157Q33 258 109 349T280 441Q331 441 370 392Q386 422 416 422Q429 422 439 414T449 394Q449 381 412 234T374 68Q374 43 381 35T402 26Q411 27 422 35Q443 55 463 131Q469 151 473 152Q475 153 483 153H487Q506 153 506 144Q506 138 501 117T481 63T449 13Q436 0 417 -8Q409 -10 393 -10Q359 -10 336 5T306 36L300 51Q299 52 296 50Q294 48 292 46Q233 -10 172 -10Q117 -10 75 30T33 157ZM351 328Q351 334 346 350T323 385T277 405Q242 405 210 374T160 293Q131 214 119 129Q119 126 119 118T118 106Q118 61 136 44T179 26Q217 26 254 59T298 110Q300 114 325 217T351 328Z"></path>
<path stroke-width="1" id="E1-MJMATHI-78" d="M52 289Q59 331 106 386T222 442Q257 442 286 424T329 379Q371 442 430 442Q467 442 494 420T522 361Q522 332 508 314T481 292T458 288Q439 288 427 299T415 328Q415 374 465 391Q454 404 425 404Q412 404 406 402Q368 386 350 336Q290 115 290 78Q290 50 306 38T341 26Q378 26 414 59T463 140Q466 150 469 151T485 153H489Q504 153 504 145Q504 144 502 134Q486 77 440 33T333 -11Q263 -11 227 52Q186 -10 133 -10H127Q78 -10 57 16T35 71Q35 103 54 123T99 143Q142 143 142 101Q142 81 130 66T107 46T94 41L91 40Q91 39 97 36T113 29T132 26Q168 26 194 71Q203 87 217 139T245 247T261 313Q266 340 266 352Q266 380 251 392T217 404Q177 404 142 372T93 290Q91 281 88 280T72 278H58Q52 284 52 289Z"></path>
<path stroke-width="1" id="E1-MJMATHI-45" d="M492 213Q472 213 472 226Q472 230 477 250T482 285Q482 316 461 323T364 330H312Q311 328 277 192T243 52Q243 48 254 48T334 46Q428 46 458 48T518 61Q567 77 599 117T670 248Q680 270 683 272Q690 274 698 274Q718 274 718 261Q613 7 608 2Q605 0 322 0H133Q31 0 31 11Q31 13 34 25Q38 41 42 43T65 46Q92 46 125 49Q139 52 144 61Q146 66 215 342T285 622Q285 629 281 629Q273 632 228 634H197Q191 640 191 642T193 659Q197 676 203 680H757Q764 676 764 669Q764 664 751 557T737 447Q735 440 717 440H705Q698 445 698 453L701 476Q704 500 704 528Q704 558 697 578T678 609T643 625T596 632T532 634H485Q397 633 392 631Q388 629 386 622Q385 619 355 499T324 377Q347 376 372 376H398Q464 376 489 391T534 472Q538 488 540 490T557 493Q562 493 565 493T570 492T572 491T574 487T577 483L544 351Q511 218 508 216Q505 213 492 213Z"></path>
<path stroke-width="1" id="E1-MJMAIN-3C" d="M694 -11T694 -19T688 -33T678 -40Q671 -40 524 29T234 166L90 235Q83 240 83 250Q83 261 91 266Q664 540 678 540Q681 540 687 534T694 519T687 505Q686 504 417 376L151 250L417 124Q686 -4 687 -5Q694 -11 694 -19Z"></path>
<path stroke-width="1" id="E1-MJMAIN-3E" d="M84 520Q84 528 88 533T96 539L99 540Q106 540 253 471T544 334L687 265Q694 260 694 250T687 235Q685 233 395 96L107 -40H101Q83 -38 83 -20Q83 -19 83 -17Q82 -10 98 -1Q117 9 248 71Q326 108 378 132L626 250L378 368Q90 504 86 509Q84 513 84 520Z"></path>
<path stroke-width="1" id="E1-MJMAIN-2C" d="M78 35T78 60T94 103T137 121Q165 121 187 96T210 8Q210 -27 201 -60T180 -117T154 -158T130 -185T117 -194Q113 -194 104 -185T95 -172Q95 -168 106 -156T131 -126T157 -76T173 -3V9L172 8Q170 7 167 6T161 3T152 1T140 0Q113 0 96 17Z"></path>
<path stroke-width="1" id="E1-MJMAIN-2F" d="M423 750Q432 750 438 744T444 730Q444 725 271 248T92 -240Q85 -250 75 -250Q68 -250 62 -245T56 -231Q56 -221 230 257T407 740Q411 750 423 750Z"></path>
<path stroke-width="1" id="E1-MJSZ1-28" d="M152 251Q152 646 388 850H416Q422 844 422 841Q422 837 403 816T357 753T302 649T255 482T236 250Q236 124 255 19T301 -147T356 -251T403 -315T422 -340Q422 -343 416 -349H388Q359 -325 332 -296T271 -213T212 -97T170 56T152 251Z"></path>
<path stroke-width="1" id="E1-MJSZ1-29" d="M305 251Q305 -145 69 -349H56Q43 -349 39 -347T35 -338Q37 -333 60 -307T108 -239T160 -136T204 27T221 250T204 473T160 636T108 740T60 807T35 839Q35 850 50 850H56H69Q197 743 256 566Q305 425 305 251Z"></path>
<path stroke-width="1" id="E1-MJMATHI-64" d="M366 683Q367 683 438 688T511 694Q523 694 523 686Q523 679 450 384T375 83T374 68Q374 26 402 26Q411 27 422 35Q443 55 463 131Q469 151 473 152Q475 153 483 153H487H491Q506 153 506 145Q506 140 503 129Q490 79 473 48T445 8T417 -8Q409 -10 393 -10Q359 -10 336 5T306 36L300 51Q299 52 296 50Q294 48 292 46Q233 -10 172 -10Q117 -10 75 30T33 157Q33 205 53 255T101 341Q148 398 195 420T280 442Q336 442 364 400Q369 394 369 396Q370 400 396 505T424 616Q424 629 417 632T378 637H357Q351 643 351 645T353 664Q358 683 366 683ZM352 326Q329 405 277 405Q242 405 210 374T160 293Q131 214 119 129Q119 126 119 118T118 106Q118 61 136 44T179 26Q233 26 290 98L298 109L352 326Z"></path>
<path stroke-width="1" id="E1-MJMATHI-6B" d="M121 647Q121 657 125 670T137 683Q138 683 209 688T282 694Q294 694 294 686Q294 679 244 477Q194 279 194 272Q213 282 223 291Q247 309 292 354T362 415Q402 442 438 442Q468 442 485 423T503 369Q503 344 496 327T477 302T456 291T438 288Q418 288 406 299T394 328Q394 353 410 369T442 390L458 393Q446 405 434 405H430Q398 402 367 380T294 316T228 255Q230 254 243 252T267 246T293 238T320 224T342 206T359 180T365 147Q365 130 360 106T354 66Q354 26 381 26Q429 26 459 145Q461 153 479 153H483Q499 153 499 144Q499 139 496 130Q455 -11 378 -11Q333 -11 305 15T277 90Q277 108 280 121T283 145Q283 167 269 183T234 206T200 217T182 220H180Q168 178 159 139T145 81T136 44T129 20T122 7T111 -2Q98 -11 83 -11Q66 -11 57 -1T48 16Q48 26 85 176T158 471L195 616Q196 629 188 632T149 637H144Q134 637 131 637T124 640T121 647Z"></path>
<path stroke-width="1" id="E1-MJSZ1-221A" d="M263 249Q264 249 315 130T417 -108T470 -228L725 302Q981 837 982 839Q989 850 1001 850Q1008 850 1013 844T1020 832V826L741 243Q645 43 540 -176Q479 -303 469 -324T453 -348Q449 -350 436 -350L424 -349L315 -96Q206 156 205 156L171 130Q138 104 137 104L111 130L263 249Z"></path>
<path stroke-width="1" id="E1-MJSZ4-239B" d="M837 1154Q843 1148 843 1145Q843 1141 818 1106T753 1002T667 841T574 604T494 299Q417 -84 417 -609Q417 -641 416 -647T411 -654Q409 -655 366 -655Q299 -655 297 -654Q292 -652 292 -643T291 -583Q293 -400 304 -242T347 110T432 470T574 813T785 1136Q787 1139 790 1142T794 1147T796 1150T799 1152T802 1153T807 1154T813 1154H819H837Z"></path>
<path stroke-width="1" id="E1-MJSZ4-239D" d="M843 -635Q843 -638 837 -644H820Q801 -644 800 -643Q792 -635 785 -626Q684 -503 605 -363T473 -75T385 216T330 518T302 809T291 1093Q291 1144 291 1153T296 1164Q298 1165 366 1165Q409 1165 411 1164Q415 1163 416 1157T417 1119Q417 529 517 109T833 -617Q843 -631 843 -635Z"></path>
<path stroke-width="1" id="E1-MJSZ4-239C" d="M413 -9Q412 -9 407 -9T388 -10T354 -10Q300 -10 297 -9Q294 -8 293 -5Q291 5 291 127V300Q291 602 292 605L296 609Q298 610 366 610Q382 610 392 610T407 610T412 609Q416 609 416 592T417 473V127Q417 -9 413 -9Z"></path>
<path stroke-width="1" id="E1-MJSZ4-239E" d="M31 1143Q31 1154 49 1154H59Q72 1154 75 1152T89 1136Q190 1013 269 873T401 585T489 294T544 -8T572 -299T583 -583Q583 -634 583 -643T577 -654Q575 -655 508 -655Q465 -655 463 -654Q459 -653 458 -647T457 -609Q457 -58 371 340T100 1037Q87 1059 61 1098T31 1143Z"></path>
<path stroke-width="1" id="E1-MJSZ4-23A0" d="M56 -644H50Q31 -644 31 -635Q31 -632 37 -622Q69 -579 100 -527Q286 -228 371 170T457 1119Q457 1161 462 1164Q464 1165 520 1165Q575 1165 577 1164Q582 1162 582 1153T583 1093Q581 910 570 752T527 400T442 40T300 -303T89 -626Q78 -640 75 -642T61 -644H56Z"></path>
<path stroke-width="1" id="E1-MJSZ4-239F" d="M579 -9Q578 -9 573 -9T554 -10T520 -10Q466 -10 463 -9Q460 -8 459 -5Q457 5 457 127V300Q457 602 458 605L462 609Q464 610 532 610Q548 610 558 610T573 610T578 609Q582 609 582 592T583 473V127Q583 -9 579 -9Z"></path>
<path stroke-width="1" id="E1-MJMAIN-2B" d="M56 237T56 250T70 270H369V420L370 570Q380 583 389 583Q402 583 409 568V270H707Q722 262 722 250T707 230H409V-68Q401 -82 391 -82H389H387Q375 -82 369 -68V230H70Q56 237 56 250Z"></path>
</defs>
<g stroke="currentColor" fill="currentColor" stroke-width="0" transform="matrix(1 0 0 -1 0 0)">
 <use xlink:href="#E1-MJMATHI-68" x="0" y="0"></use>
 <use xlink:href="#E1-MJMAIN-28" x="576" y="0"></use>
<g transform="translate(966,0)">
<text font-family="monospace" stroke="none" transform="scale(71.759) matrix(1 0 0 -1 0 0)">我</text>
</g>
 <use xlink:href="#E1-MJMAIN-29" x="2114" y="0"></use>
 <use xlink:href="#E1-MJMAIN-3D" x="2781" y="0"></use>
 <use xlink:href="#E1-MJMATHI-73" x="3837" y="0"></use>
 <use xlink:href="#E1-MJMATHI-6F" x="4307" y="0"></use>
 <use xlink:href="#E1-MJMATHI-66" x="4792" y="0"></use>
 <use xlink:href="#E1-MJMATHI-74" x="5343" y="0"></use>
 <use xlink:href="#E1-MJMATHI-6D" x="5704" y="0"></use>
 <use xlink:href="#E1-MJMATHI-61" x="6583" y="0"></use>
 <use xlink:href="#E1-MJMATHI-78" x="7112" y="0"></use>
 <use xlink:href="#E1-MJMAIN-28" x="7685" y="0"></use>
<g transform="translate(8074,0)">
<g transform="translate(120,0)">
<rect stroke="none" width="32497" height="60" x="0" y="220"></rect>
<g transform="translate(60,949)">
 <use xlink:href="#E1-MJMATHI-45" x="0" y="0"></use>
 <use xlink:href="#E1-MJMAIN-28" x="764" y="0"></use>
<g transform="translate(1154,0)">
<text font-family="monospace" stroke="none" transform="scale(71.759) matrix(1 0 0 -1 0 0)">我</text>
</g>
 <use xlink:href="#E1-MJMAIN-29" x="2302" y="0"></use>
<g transform="translate(2858,0)">
 <use xlink:href="#E1-MJSZ1-28"></use>
<g transform="translate(625,0)">
<g transform="translate(-11,0)">
<g transform="translate(0,34)">
 <use xlink:href="#E1-MJMATHI-45" x="0" y="0"></use>
 <use xlink:href="#E1-MJMAIN-28" x="764" y="0"></use>
 <use xlink:href="#E1-MJMAIN-3C" x="1154" y="0"></use>
 <use xlink:href="#E1-MJMATHI-73" x="2210" y="0"></use>
 <use xlink:href="#E1-MJMAIN-3E" x="2957" y="0"></use>
 <use xlink:href="#E1-MJMAIN-29" x="3736" y="0"></use>
 <use xlink:href="#E1-MJMAIN-2C" x="4125" y="0"></use>
</g>
</g>
<g transform="translate(5393,0)">
<g transform="translate(0,34)">
 <use xlink:href="#E1-MJMATHI-45" x="0" y="0"></use>
 <use xlink:href="#E1-MJMAIN-28" x="764" y="0"></use>
 <use xlink:href="#E1-MJMAIN-3C" x="1154" y="0"></use>
<g transform="translate(2210,0)">
<text font-family="monospace" stroke="none" transform="scale(71.759) matrix(1 0 0 -1 0 0)">我</text>
</g>
 <use xlink:href="#E1-MJMAIN-3E" x="3636" y="0"></use>
 <use xlink:href="#E1-MJMAIN-29" x="4414" y="0"></use>
 <use xlink:href="#E1-MJMAIN-2C" x="4804" y="0"></use>
</g>
</g>
<g transform="translate(11476,0)">
<g transform="translate(0,34)">
 <use xlink:href="#E1-MJMATHI-45" x="0" y="0"></use>
 <use xlink:href="#E1-MJMAIN-28" x="764" y="0"></use>
 <use xlink:href="#E1-MJMAIN-3C" x="1154" y="0"></use>
<g transform="translate(2210,0)">
<text font-family="monospace" stroke="none" transform="scale(71.759) matrix(1 0 0 -1 0 0)">很</text>
</g>
 <use xlink:href="#E1-MJMAIN-3E" x="3636" y="0"></use>
 <use xlink:href="#E1-MJMAIN-29" x="4414" y="0"></use>
 <use xlink:href="#E1-MJMAIN-2C" x="4804" y="0"></use>
</g>
</g>
<g transform="translate(17559,0)">
<g transform="translate(0,34)">
 <use xlink:href="#E1-MJMATHI-45" x="0" y="0"></use>
 <use xlink:href="#E1-MJMAIN-28" x="764" y="0"></use>
 <use xlink:href="#E1-MJMAIN-3C" x="1154" y="0"></use>
<g transform="translate(2210,0)">
<text font-family="monospace" stroke="none" transform="scale(71.759) matrix(1 0 0 -1 0 0)">帅</text>
</g>
 <use xlink:href="#E1-MJMAIN-3E" x="3636" y="0"></use>
 <use xlink:href="#E1-MJMAIN-29" x="4414" y="0"></use>
 <use xlink:href="#E1-MJMAIN-2C" x="4804" y="0"></use>
</g>
</g>
<g transform="translate(23641,0)">
<g transform="translate(0,34)">
 <use xlink:href="#E1-MJMATHI-45" x="0" y="0"></use>
 <use xlink:href="#E1-MJMAIN-28" x="764" y="0"></use>
 <use xlink:href="#E1-MJMAIN-3C" x="1154" y="0"></use>
 <use xlink:href="#E1-MJMAIN-2F" x="2210" y="0"></use>
 <use xlink:href="#E1-MJMATHI-73" x="2710" y="0"></use>
 <use xlink:href="#E1-MJMAIN-3E" x="3458" y="0"></use>
 <use xlink:href="#E1-MJMAIN-29" x="4236" y="0"></use>
</g>
</g>
</g>
 <use xlink:href="#E1-MJSZ1-29" x="29060" y="-1"></use>
</g>
</g>
<g transform="translate(15253,-955)">
 <use xlink:href="#E1-MJSZ1-221A" x="0" y="24"></use>
<rect stroke="none" width="989" height="60" x="1000" y="815"></rect>
<g transform="translate(1000,0)">
 <use xlink:href="#E1-MJMATHI-64" x="0" y="0"></use>
 <use transform="scale(0.707)" xlink:href="#E1-MJMATHI-6B" x="736" y="-213"></use>
</g>
</g>
</g>
</g>
 <use xlink:href="#E1-MJMAIN-29" x="40811" y="0"></use>
<g transform="translate(41367,0)">
<g transform="translate(0,4038)">
 <use xlink:href="#E1-MJSZ4-239B" x="0" y="-1156"></use>
<g transform="translate(0,-5737.899592295345) scale(1,6.507200642054576)">
 <use xlink:href="#E1-MJSZ4-239C"></use>
</g>
 <use xlink:href="#E1-MJSZ4-239D" x="0" y="-6932"></use>
</g>
<g transform="translate(1042,0)">
<g transform="translate(-11,0)">
<g transform="translate(339,3238)">
 <use xlink:href="#E1-MJMATHI-45" x="0" y="0"></use>
 <use xlink:href="#E1-MJMAIN-28" x="764" y="0"></use>
 <use xlink:href="#E1-MJMAIN-3C" x="1154" y="0"></use>
 <use xlink:href="#E1-MJMATHI-73" x="2210" y="0"></use>
 <use xlink:href="#E1-MJMAIN-3E" x="2957" y="0"></use>
 <use xlink:href="#E1-MJMAIN-29" x="3736" y="0"></use>
</g>
<g transform="translate(0,1726)">
 <use xlink:href="#E1-MJMATHI-45" x="0" y="0"></use>
 <use xlink:href="#E1-MJMAIN-28" x="764" y="0"></use>
 <use xlink:href="#E1-MJMAIN-3C" x="1154" y="0"></use>
<g transform="translate(2210,0)">
<text font-family="monospace" stroke="none" transform="scale(71.759) matrix(1 0 0 -1 0 0)">我</text>
</g>
 <use xlink:href="#E1-MJMAIN-3E" x="3636" y="0"></use>
 <use xlink:href="#E1-MJMAIN-29" x="4414" y="0"></use>
</g>
<g transform="translate(0,34)">
 <use xlink:href="#E1-MJMATHI-45" x="0" y="0"></use>
 <use xlink:href="#E1-MJMAIN-28" x="764" y="0"></use>
 <use xlink:href="#E1-MJMAIN-3C" x="1154" y="0"></use>
<g transform="translate(2210,0)">
<text font-family="monospace" stroke="none" transform="scale(71.759) matrix(1 0 0 -1 0 0)">很</text>
</g>
 <use xlink:href="#E1-MJMAIN-3E" x="3636" y="0"></use>
 <use xlink:href="#E1-MJMAIN-29" x="4414" y="0"></use>
</g>
<g transform="translate(0,-1657)">
 <use xlink:href="#E1-MJMATHI-45" x="0" y="0"></use>
 <use xlink:href="#E1-MJMAIN-28" x="764" y="0"></use>
 <use xlink:href="#E1-MJMAIN-3C" x="1154" y="0"></use>
<g transform="translate(2210,0)">
<text font-family="monospace" stroke="none" transform="scale(71.759) matrix(1 0 0 -1 0 0)">帅</text>
</g>
 <use xlink:href="#E1-MJMAIN-3E" x="3636" y="0"></use>
 <use xlink:href="#E1-MJMAIN-29" x="4414" y="0"></use>
</g>
<g transform="translate(89,-3288)">
 <use xlink:href="#E1-MJMATHI-45" x="0" y="0"></use>
 <use xlink:href="#E1-MJMAIN-28" x="764" y="0"></use>
 <use xlink:href="#E1-MJMAIN-3C" x="1154" y="0"></use>
 <use xlink:href="#E1-MJMAIN-2F" x="2210" y="0"></use>
 <use xlink:href="#E1-MJMATHI-73" x="2710" y="0"></use>
 <use xlink:href="#E1-MJMAIN-3E" x="3458" y="0"></use>
 <use xlink:href="#E1-MJMAIN-29" x="4236" y="0"></use>
</g>
</g>
</g>
<g transform="translate(7003,4038)">
 <use xlink:href="#E1-MJSZ4-239E" x="0" y="-1155"></use>
<g transform="translate(0,-5737.880330658107) scale(1,6.508805778491173)">
 <use xlink:href="#E1-MJSZ4-239F"></use>
</g>
 <use xlink:href="#E1-MJSZ4-23A0" x="0" y="-6932"></use>
</g>
</g>
<g transform="translate(0,-5781)">
 <use xlink:href="#E1-MJMAIN-3D" x="0" y="0"></use>
 <use xlink:href="#E1-MJMATHI-73" x="1056" y="0"></use>
 <use xlink:href="#E1-MJMATHI-6F" x="1525" y="0"></use>
 <use xlink:href="#E1-MJMATHI-66" x="2011" y="0"></use>
 <use xlink:href="#E1-MJMATHI-74" x="2561" y="0"></use>
 <use xlink:href="#E1-MJMATHI-6D" x="2923" y="0"></use>
 <use xlink:href="#E1-MJMATHI-61" x="3801" y="0"></use>
 <use xlink:href="#E1-MJMATHI-78" x="4331" y="0"></use>
 <use xlink:href="#E1-MJMAIN-28" x="4903" y="0"></use>
<g transform="translate(5293,0)">
<g transform="translate(120,0)">
<rect stroke="none" width="6937" height="60" x="0" y="220"></rect>
<g transform="translate(60,949)">
 <use xlink:href="#E1-MJMATHI-45" x="0" y="0"></use>
 <use xlink:href="#E1-MJMAIN-28" x="764" y="0"></use>
<g transform="translate(1154,0)">
<text font-family="monospace" stroke="none" transform="scale(71.759) matrix(1 0 0 -1 0 0)">我</text>
</g>
 <use xlink:href="#E1-MJMAIN-29" x="2302" y="0"></use>
 <use xlink:href="#E1-MJMATHI-45" x="2691" y="0"></use>
 <use xlink:href="#E1-MJMAIN-28" x="3456" y="0"></use>
 <use xlink:href="#E1-MJMAIN-3C" x="3845" y="0"></use>
 <use xlink:href="#E1-MJMATHI-73" x="4901" y="0"></use>
 <use xlink:href="#E1-MJMAIN-3E" x="5649" y="0"></use>
 <use xlink:href="#E1-MJMAIN-29" x="6427" y="0"></use>
</g>
<g transform="translate(2473,-955)">
 <use xlink:href="#E1-MJSZ1-221A" x="0" y="24"></use>
<rect stroke="none" width="989" height="60" x="1000" y="815"></rect>
<g transform="translate(1000,0)">
 <use xlink:href="#E1-MJMATHI-64" x="0" y="0"></use>
 <use transform="scale(0.707)" xlink:href="#E1-MJMATHI-6B" x="736" y="-213"></use>
</g>
</g>
</g>
</g>
 <use xlink:href="#E1-MJMAIN-29" x="12470" y="0"></use>
 <use xlink:href="#E1-MJMATHI-45" x="12859" y="0"></use>
 <use xlink:href="#E1-MJMAIN-28" x="13624" y="0"></use>
 <use xlink:href="#E1-MJMAIN-3C" x="14013" y="0"></use>
 <use xlink:href="#E1-MJMATHI-73" x="15070" y="0"></use>
 <use xlink:href="#E1-MJMAIN-3E" x="15817" y="0"></use>
 <use xlink:href="#E1-MJMAIN-29" x="16596" y="0"></use>
 <use xlink:href="#E1-MJMAIN-2B" x="17207" y="0"></use>
 <use xlink:href="#E1-MJMATHI-73" x="18208" y="0"></use>
 <use xlink:href="#E1-MJMATHI-6F" x="18677" y="0"></use>
 <use xlink:href="#E1-MJMATHI-66" x="19163" y="0"></use>
 <use xlink:href="#E1-MJMATHI-74" x="19713" y="0"></use>
 <use xlink:href="#E1-MJMATHI-6D" x="20075" y="0"></use>
 <use xlink:href="#E1-MJMATHI-61" x="20953" y="0"></use>
 <use xlink:href="#E1-MJMATHI-78" x="21483" y="0"></use>
 <use xlink:href="#E1-MJMAIN-28" x="22055" y="0"></use>
<g transform="translate(22445,0)">
<g transform="translate(120,0)">
<rect stroke="none" width="7615" height="60" x="0" y="220"></rect>
<g transform="translate(60,949)">
 <use xlink:href="#E1-MJMATHI-45" x="0" y="0"></use>
 <use xlink:href="#E1-MJMAIN-28" x="764" y="0"></use>
<g transform="translate(1154,0)">
<text font-family="monospace" stroke="none" transform="scale(71.759) matrix(1 0 0 -1 0 0)">我</text>
</g>
 <use xlink:href="#E1-MJMAIN-29" x="2302" y="0"></use>
 <use xlink:href="#E1-MJMATHI-45" x="2691" y="0"></use>
 <use xlink:href="#E1-MJMAIN-28" x="3456" y="0"></use>
 <use xlink:href="#E1-MJMAIN-3C" x="3845" y="0"></use>
<g transform="translate(4901,0)">
<text font-family="monospace" stroke="none" transform="scale(71.759) matrix(1 0 0 -1 0 0)">我</text>
</g>
 <use xlink:href="#E1-MJMAIN-3E" x="6327" y="0"></use>
 <use xlink:href="#E1-MJMAIN-29" x="7106" y="0"></use>
</g>
<g transform="translate(2813,-955)">
 <use xlink:href="#E1-MJSZ1-221A" x="0" y="24"></use>
<rect stroke="none" width="989" height="60" x="1000" y="815"></rect>
<g transform="translate(1000,0)">
 <use xlink:href="#E1-MJMATHI-64" x="0" y="0"></use>
 <use transform="scale(0.707)" xlink:href="#E1-MJMATHI-6B" x="736" y="-213"></use>
</g>
</g>
</g>
</g>
 <use xlink:href="#E1-MJMAIN-29" x="30301" y="0"></use>
 <use xlink:href="#E1-MJMATHI-45" x="30690" y="0"></use>
 <use xlink:href="#E1-MJMAIN-28" x="31455" y="0"></use>
 <use xlink:href="#E1-MJMAIN-3C" x="31844" y="0"></use>
<g transform="translate(32901,0)">
<text font-family="monospace" stroke="none" transform="scale(71.759) matrix(1 0 0 -1 0 0)">我</text>
</g>
 <use xlink:href="#E1-MJMAIN-3E" x="34327" y="0"></use>
 <use xlink:href="#E1-MJMAIN-29" x="35105" y="0"></use>
 <use xlink:href="#E1-MJMAIN-2B" x="35717" y="0"></use>
 <use xlink:href="#E1-MJMATHI-73" x="36717" y="0"></use>
 <use xlink:href="#E1-MJMATHI-6F" x="37187" y="0"></use>
 <use xlink:href="#E1-MJMATHI-66" x="37672" y="0"></use>
 <use xlink:href="#E1-MJMATHI-74" x="38223" y="0"></use>
 <use xlink:href="#E1-MJMATHI-6D" x="38584" y="0"></use>
 <use xlink:href="#E1-MJMATHI-61" x="39463" y="0"></use>
 <use xlink:href="#E1-MJMATHI-78" x="39992" y="0"></use>
 <use xlink:href="#E1-MJMAIN-28" x="40565" y="0"></use>
<g transform="translate(40954,0)">
<g transform="translate(120,0)">
<rect stroke="none" width="7615" height="60" x="0" y="220"></rect>
<g transform="translate(60,949)">
 <use xlink:href="#E1-MJMATHI-45" x="0" y="0"></use>
 <use xlink:href="#E1-MJMAIN-28" x="764" y="0"></use>
<g transform="translate(1154,0)">
<text font-family="monospace" stroke="none" transform="scale(71.759) matrix(1 0 0 -1 0 0)">我</text>
</g>
 <use xlink:href="#E1-MJMAIN-29" x="2302" y="0"></use>
 <use xlink:href="#E1-MJMATHI-45" x="2691" y="0"></use>
 <use xlink:href="#E1-MJMAIN-28" x="3456" y="0"></use>
 <use xlink:href="#E1-MJMAIN-3C" x="3845" y="0"></use>
<g transform="translate(4901,0)">
<text font-family="monospace" stroke="none" transform="scale(71.759) matrix(1 0 0 -1 0 0)">很</text>
</g>
 <use xlink:href="#E1-MJMAIN-3E" x="6327" y="0"></use>
 <use xlink:href="#E1-MJMAIN-29" x="7106" y="0"></use>
</g>
<g transform="translate(2813,-955)">
 <use xlink:href="#E1-MJSZ1-221A" x="0" y="24"></use>
<rect stroke="none" width="989" height="60" x="1000" y="815"></rect>
<g transform="translate(1000,0)">
 <use xlink:href="#E1-MJMATHI-64" x="0" y="0"></use>
 <use transform="scale(0.707)" xlink:href="#E1-MJMATHI-6B" x="736" y="-213"></use>
</g>
</g>
</g>
</g>
 <use xlink:href="#E1-MJMAIN-29" x="48810" y="0"></use>
 <use xlink:href="#E1-MJMATHI-45" x="49200" y="0"></use>
 <use xlink:href="#E1-MJMAIN-28" x="49964" y="0"></use>
 <use xlink:href="#E1-MJMAIN-3C" x="50354" y="0"></use>
<g transform="translate(51410,0)">
<text font-family="monospace" stroke="none" transform="scale(71.759) matrix(1 0 0 -1 0 0)">很</text>
</g>
 <use xlink:href="#E1-MJMAIN-3E" x="52836" y="0"></use>
 <use xlink:href="#E1-MJMAIN-29" x="53615" y="0"></use>
</g>
<g transform="translate(8782,-9304)">
 <use xlink:href="#E1-MJMAIN-2B" x="0" y="0"></use>
 <use xlink:href="#E1-MJMATHI-73" x="1000" y="0"></use>
 <use xlink:href="#E1-MJMATHI-6F" x="1470" y="0"></use>
 <use xlink:href="#E1-MJMATHI-66" x="1955" y="0"></use>
 <use xlink:href="#E1-MJMATHI-74" x="2506" y="0"></use>
 <use xlink:href="#E1-MJMATHI-6D" x="2867" y="0"></use>
 <use xlink:href="#E1-MJMATHI-61" x="3746" y="0"></use>
 <use xlink:href="#E1-MJMATHI-78" x="4275" y="0"></use>
 <use xlink:href="#E1-MJMAIN-28" x="4848" y="0"></use>
<g transform="translate(5237,0)">
<g transform="translate(120,0)">
<rect stroke="none" width="7615" height="60" x="0" y="220"></rect>
<g transform="translate(60,949)">
 <use xlink:href="#E1-MJMATHI-45" x="0" y="0"></use>
 <use xlink:href="#E1-MJMAIN-28" x="764" y="0"></use>
<g transform="translate(1154,0)">
<text font-family="monospace" stroke="none" transform="scale(71.759) matrix(1 0 0 -1 0 0)">我</text>
</g>
 <use xlink:href="#E1-MJMAIN-29" x="2302" y="0"></use>
 <use xlink:href="#E1-MJMATHI-45" x="2691" y="0"></use>
 <use xlink:href="#E1-MJMAIN-28" x="3456" y="0"></use>
 <use xlink:href="#E1-MJMAIN-3C" x="3845" y="0"></use>
<g transform="translate(4901,0)">
<text font-family="monospace" stroke="none" transform="scale(71.759) matrix(1 0 0 -1 0 0)">帅</text>
</g>
 <use xlink:href="#E1-MJMAIN-3E" x="6327" y="0"></use>
 <use xlink:href="#E1-MJMAIN-29" x="7106" y="0"></use>
</g>
<g transform="translate(2813,-955)">
 <use xlink:href="#E1-MJSZ1-221A" x="0" y="24"></use>
<rect stroke="none" width="989" height="60" x="1000" y="815"></rect>
<g transform="translate(1000,0)">
 <use xlink:href="#E1-MJMATHI-64" x="0" y="0"></use>
 <use transform="scale(0.707)" xlink:href="#E1-MJMATHI-6B" x="736" y="-213"></use>
</g>
</g>
</g>
</g>
 <use xlink:href="#E1-MJMAIN-29" x="13093" y="0"></use>
 <use xlink:href="#E1-MJMATHI-45" x="13483" y="0"></use>
 <use xlink:href="#E1-MJMAIN-28" x="14247" y="0"></use>
 <use xlink:href="#E1-MJMAIN-3C" x="14637" y="0"></use>
<g transform="translate(15693,0)">
<text font-family="monospace" stroke="none" transform="scale(71.759) matrix(1 0 0 -1 0 0)">帅</text>
</g>
 <use xlink:href="#E1-MJMAIN-3E" x="17119" y="0"></use>
 <use xlink:href="#E1-MJMAIN-29" x="17897" y="0"></use>
 <use xlink:href="#E1-MJMAIN-2B" x="18509" y="0"></use>
 <use xlink:href="#E1-MJMATHI-73" x="19510" y="0"></use>
 <use xlink:href="#E1-MJMATHI-6F" x="19979" y="0"></use>
 <use xlink:href="#E1-MJMATHI-66" x="20465" y="0"></use>
 <use xlink:href="#E1-MJMATHI-74" x="21015" y="0"></use>
 <use xlink:href="#E1-MJMATHI-6D" x="21377" y="0"></use>
 <use xlink:href="#E1-MJMATHI-61" x="22255" y="0"></use>
 <use xlink:href="#E1-MJMATHI-78" x="22785" y="0"></use>
 <use xlink:href="#E1-MJMAIN-28" x="23357" y="0"></use>
<g transform="translate(23747,0)">
<g transform="translate(120,0)">
<rect stroke="none" width="7437" height="60" x="0" y="220"></rect>
<g transform="translate(60,949)">
 <use xlink:href="#E1-MJMATHI-45" x="0" y="0"></use>
 <use xlink:href="#E1-MJMAIN-28" x="764" y="0"></use>
<g transform="translate(1154,0)">
<text font-family="monospace" stroke="none" transform="scale(71.759) matrix(1 0 0 -1 0 0)">我</text>
</g>
 <use xlink:href="#E1-MJMAIN-29" x="2302" y="0"></use>
 <use xlink:href="#E1-MJMATHI-45" x="2691" y="0"></use>
 <use xlink:href="#E1-MJMAIN-28" x="3456" y="0"></use>
 <use xlink:href="#E1-MJMAIN-3C" x="3845" y="0"></use>
 <use xlink:href="#E1-MJMAIN-2F" x="4901" y="0"></use>
 <use xlink:href="#E1-MJMATHI-73" x="5402" y="0"></use>
 <use xlink:href="#E1-MJMAIN-3E" x="6149" y="0"></use>
 <use xlink:href="#E1-MJMAIN-29" x="6928" y="0"></use>
</g>
<g transform="translate(2723,-955)">
 <use xlink:href="#E1-MJSZ1-221A" x="0" y="24"></use>
<rect stroke="none" width="989" height="60" x="1000" y="815"></rect>
<g transform="translate(1000,0)">
 <use xlink:href="#E1-MJMATHI-64" x="0" y="0"></use>
 <use transform="scale(0.707)" xlink:href="#E1-MJMATHI-6B" x="736" y="-213"></use>
</g>
</g>
</g>
</g>
 <use xlink:href="#E1-MJMAIN-29" x="31424" y="0"></use>
 <use xlink:href="#E1-MJMATHI-45" x="31814" y="0"></use>
 <use xlink:href="#E1-MJMAIN-28" x="32578" y="0"></use>
 <use xlink:href="#E1-MJMAIN-3C" x="32968" y="0"></use>
 <use xlink:href="#E1-MJMAIN-2F" x="34024" y="0"></use>
 <use xlink:href="#E1-MJMATHI-73" x="34525" y="0"></use>
 <use xlink:href="#E1-MJMAIN-3E" x="35272" y="0"></use>
 <use xlink:href="#E1-MJMAIN-29" x="36050" y="0"></use>
</g>
</g>
</svg>